<svg xmlns="http://www.w3.org/2000/svg" viewBox="0 0 650 95.4" focusable="false" role="img" aria-labelledby="kohls-logo"><title id="kohls-logo">kohl's</title><g fill="#222"><path d="M0 2.4h44.4V32h.3L78.5 2.4h49.8L87.4 38.7l47.3 49.9H78.5L44.7 53.3h-.3v35.3H0M198.8 0c50.4 0 64.1 10.4 64.1 45.7 0 35.4-13.7 45.7-64.1 45.7S134.7 81 134.7 45.7 148.4 0 198.8 0m0 73.6c19.7 0 18.4-21.6 18.4-28.8 0-7.1.2-27-18.4-27-18.7 0-18.4 19.8-18.4 27s-1.4 28.8 18.4 28.8m159.8-17.4v32.9h45.6V3h-45.6v29.6h-32.7V3h-45.6v86.1h45.6V56.2M425.7 3h46.6v65.6s37.2.1 42.2.1 7.9-4.4 7.9-4.4v24.8h-96.6V3M631 31.5c-9.6-7.6-17.9-10.1-26.8-10.3-8.7-.1-16.6 2.8-16.6 8 0 4.1 5.9 5.8 26.7 10 17 3.5 28.4 12.1 28.4 28 0 18-30.4 28.1-57.7 28.1-19.1 0-33.8-3.4-46.9-9.2v-24c8.1 8.3 26.3 12.7 40.2 12.7 7.7 0 11.5-1.1 11.5-7.1 0-3.7-4.8-7.1-19.4-9.8-27.6-5-36.9-12.7-36.9-26 0-19.1 24.1-30.4 53.9-30.4 16 0 30.8.5 43.7 6.4v23.6"></path><path d="M496.4 38.1l3.2-5.5C490 27.9 487.1 16 492 9.3c5.3-7.3 19.8-10.4 27.7.9 6.7 9.6.3 17.8-2.6 20.1-2.9 2.3-20.7 7.8-20.7 7.8M642.7 1.3c3.9 0 7.3 2.8 7.3 7.1s-3.4 7.1-7.3 7.1-7.3-2.8-7.3-7.1 3.4-7.1 7.3-7.1m0 12.7c2.9 0 5.4-2.4 5.4-5.6s-2.4-5.6-5.4-5.6-5.4 2.3-5.4 5.6 2.4 5.6 5.4 5.6m-2.8-9.6h3c2 0 3.1.6 3.1 2.4 0 1.5-.9 2-2.1 2.1l2.1 3.5h-1.7L642.4 9h-1v3.4h-1.6l.1-8zm1.5 3.3h1.4c.9 0 1.6-.1 1.6-1.1 0-.9-.9-1-1.6-1h-1.3v2.1h-.1z"></path></g></svg>